<svg width="1920" height="1011" viewBox="0 0 1920 1011" fill="none" xmlns="http://www.w3.org/2000/svg">
<path d="M-106 287.397C-88.1117 264.63 -61.5327 247.174 -38.3707 230.151C-1.18005 202.818 38.2313 177.679 79.7701 157.471C202.61 97.7104 340.577 66.6435 474.321 42.5569C610.67 18.0012 758.154 -0.68836 896.372 19.6864C946.066 27.0118 1025.08 46.812 991.783 113.413C975.228 146.523 943.045 175.029 915.174 198.441C866.862 239.023 812.913 273.726 758.308 305.076C620.986 383.918 480.323 456 347.2 542.059C290.054 579.002 233.169 618.021 180.512 661.182C135.691 697.921 87.104 738.894 56.7592 789.145C42.0229 813.548 28.9821 848.35 38.9399 876.979C51.2739 912.439 93.6357 926.746 127.335 929.735C262.434 941.72 405.859 910.245 535.917 877.961C755.468 823.462 967.461 744.348 1180.64 669.601C1370.14 603.155 1564.79 537.053 1762.36 498.844C1831.11 485.548 1983.04 456.093 2020.25 543.322C2031.85 570.494 2021.57 602.478 2010.85 628.069C1982.78 695.099 1941.73 754.638 1897.48 811.875C1765.22 982.987 1620.32 1145.74 1451.72 1281.91C1365.66 1351.42 1273.45 1414.6 1194.53 1492.52C1128.2 1558.02 1058.83 1637.09 1029.67 1727.68C1016.79 1767.69 1005.16 1815.94 1011.99 1858.3C1016.66 1887.3 1051.55 1878.51 1073.44 1878.51" stroke="#374151" stroke-width="21" stroke-linecap="round"/>
</svg>
